{
  "accessors": [
    {
      "bufferView": 2,
      "componentType": 5126,
      "count": 13379,
      "max": [
        74.16064453125,
        60.151466369628906,
        95.35569763183594
      ],
      "min": [
        -74.740966796875,
        -67.69048309326172,
        -0.19112400710582733
      ],
      "type": "VEC3"
    },
    {
      "bufferView": 2,
      "byteOffset": 160548,
      "componentType": 5126,
      "count": 13379,
      "max": [
        1.0,
        1.0,
        1.0
      ],
      "min": [
        -1.0,
        -1.0,
        -1.0
      ],
      "type": "VEC3"
    },
    {
      "bufferView": 1,
      "componentType": 5126,
      "count": 13379,
      "max": [
        0.9828969836235046,
        0.9919999837875366
      ],
      "min": [
        0.00800000037997961,
        0.00800000037997961
      ],
      "type": "VEC2"
    },
    {
      "bufferView": 0,
      "componentType": 5125,
      "count": 35139,
      "type": "SCALAR"
    },
    {
      "bufferView": 2,
      "byteOffset": 321096,
      "componentType": 5126,
      "count": 29457,
      "max": [
        74.16064453125,
        60.151466369628906,
        95.64468383789063
      ],
      "min": [
        -74.740966796875,
        -67.87074279785156,
        -0.4495610296726227
      ],
      "type": "VEC3"
    },
    {
      "bufferView": 2,
      "byteOffset": 674580,
      "componentType": 5126,
      "count": 29457,
      "max": [
        1.0,
        1.0,
        1.0
      ],
      "min": [
        -1.0,
        -1.0,
        -1.0
      ],
      "type": "VEC3"
    },
    {
      "bufferView": 1,
      "byteOffset": 107032,
      "componentType": 5126,
      "count": 29457,
      "max": [
        0.9828969836235046,
        0.9919999837875366
      ],
      "min": [
        0.00800000037997961,
        0.00800000037997961
      ],
      "type": "VEC2"
    },
    {
      "bufferView": 0,
      "byteOffset": 140556,
      "componentType": 5125,
      "count": 81168,
      "type": "SCALAR"
    }
  ],
  "asset": {
    "extras": {
      "author": "alba_fontanals_bc3dv1mc2021 (https://sketchfab.com/alba_fontanals_bc3dv1mc2021)",
      "license": "CC-BY-4.0 (http://creativecommons.org/licenses/by/4.0/)",
      "source": "https://sketchfab.com/3d-models/ramen-house-fanart-16b06220aabd468ea35f9bb568599a5d",
      "title": "Ramen House - FanArt"
    },
    "generator": "Sketchfab-12.68.0",
    "version": "2.0"
  },
  "bufferViews": [
    {
      "buffer": 0,
      "byteLength": 465228,
      "name": "floatBufferViews",
      "target": 34963
    },
    {
      "buffer": 0,
      "byteLength": 342688,
      "byteOffset": 465228,
      "byteStride": 8,
      "name": "floatBufferViews",
      "target": 34962
    },
    {
      "buffer": 0,
      "byteLength": 1028064,
      "byteOffset": 807916,
      "byteStride": 12,
      "name": "floatBufferViews",
      "target": 34962
    }
  ],
  "buffers": [
    {
      "byteLength": 1835980,
      "uri": "scene.bin"
    }
  ],
  "images": [
    {
      "uri": "textures/Material_25_baseColor.png"
    },
    {
      "uri": "textures/Material_25_metallicRoughness.png"
    }
  ],
  "materials": [
    {
      "doubleSided": true,
      "name": "Material_25",
      "pbrMetallicRoughness": {
        "baseColorTexture": {
          "index": 0
        },
        "metallicRoughnessTexture": {
          "index": 1
        }
      }
    },
    {
      "name": "Material_26",
      "pbrMetallicRoughness": {
        "baseColorFactor": [
          0.0,
          0.0,
          0.0,
          1.0
        ],
        "metallicFactor": 0.0,
        "roughnessFactor": 0.6
      }
    }
  ],
  "meshes": [
    {
      "name": "environ_Material #25_0",
      "primitives": [
        {
          "attributes": {
            "NORMAL": 1,
            "POSITION": 0,
            "TEXCOORD_0": 2
          },
          "indices": 3,
          "material": 0,
          "mode": 4
        }
      ]
    },
    {
      "name": "shell_Material #26_0",
      "primitives": [
        {
          "attributes": {
            "NORMAL": 5,
            "POSITION": 4,
            "TEXCOORD_0": 6
          },
          "indices": 7,
          "material": 1,
          "mode": 4
        }
      ]
    }
  ],
  "nodes": [
    {
      "children": [
        1
      ],
      "matrix": [
        0.999988317489624,
        -1.0733854418078782e-18,
        0.0048340982757508755,
        0.0,
        -0.0048340982757508755,
        -2.2204201088663034e-16,
        0.999988317489624,
        0.0,
        0.0,
        -1.0,
        -2.220446049250313e-16,
        0.0,
        0.018575521185994148,
        -95.19640350341797,
        -7.685161113739035,
        1.0
      ],
      "name": "Sketchfab_model"
    },
    {
      "children": [
        2
      ],
      "matrix": [
        1.0,
        0.0,
        0.0,
        0.0,
        0.0,
        -1.0,
        0.0,
        0.0,
        0.0,
        0.0,
        -1.0,
        0.0,
        0.0,
        0.0,
        0.0,
        1.0
      ],
      "name": "059848b633a14978a96d1ac04d95078f.fbx"
    },
    {
      "children": [
        3,
        5
      ],
      "name": "RootNode"
    },
    {
      "children": [
        4
      ],
      "name": "environ"
    },
    {
      "mesh": 0,
      "name": "environ_Material #25_0"
    },
    {
      "children": [
        6
      ],
      "name": "shell"
    },
    {
      "mesh": 1,
      "name": "shell_Material #26_0"
    }
  ],
  "samplers": [
    {
      "magFilter": 9729,
      "minFilter": 9987,
      "wrapS": 10497,
      "wrapT": 10497
    }
  ],
  "scene": 0,
  "scenes": [
    {
      "name": "Sketchfab_Scene",
      "nodes": [
        0
      ]
    }
  ],
  "textures": [
    {
      "sampler": 0,
      "source": 0
    },
    {
      "sampler": 0,
      "source": 1
    }
  ]
}
